<?xml version="1.0" encoding="UTF-8" standalone="no"?>
<!-- Generator: Adobe Illustrator 18.1.1, SVG Export Plug-In . SVG Version: 6.00 Build 0)  -->

<svg
   xmlns:dc="http://purl.org/dc/elements/1.1/"
   xmlns:cc="http://creativecommons.org/ns#"
   xmlns:rdf="http://www.w3.org/1999/02/22-rdf-syntax-ns#"
   xmlns:svg="http://www.w3.org/2000/svg"
   xmlns="http://www.w3.org/2000/svg"
   xmlns:sodipodi="http://sodipodi.sourceforge.net/DTD/sodipodi-0.dtd"
   xmlns:inkscape="http://www.inkscape.org/namespaces/inkscape"
   version="1.1"
   id="Capa_1"
   x="0px"
   y="0px"
   viewBox="0 0 71.577 71.577"
   style="enable-background:new 0 0 71.577 71.577;"
   xml:space="preserve"
   width="512px"
   height="512px"
   sodipodi:docname="01pc.svg"
   inkscape:version="0.92.4 (5da689c313, 2019-01-14)"><metadata
   id="metadata45"><rdf:RDF><cc:Work
       rdf:about=""><dc:format>image/svg+xml</dc:format><dc:type
         rdf:resource="http://purl.org/dc/dcmitype/StillImage" /></cc:Work></rdf:RDF></metadata><defs
   id="defs43" /><sodipodi:namedview
   pagecolor="#ffffff"
   bordercolor="#666666"
   borderopacity="1"
   objecttolerance="10"
   gridtolerance="10"
   guidetolerance="10"
   inkscape:pageopacity="0"
   inkscape:pageshadow="2"
   inkscape:window-width="1680"
   inkscape:window-height="997"
   id="namedview41"
   showgrid="false"
   inkscape:zoom="0.65186406"
   inkscape:cx="213.26524"
   inkscape:cy="195.49341"
   inkscape:window-x="-8"
   inkscape:window-y="-8"
   inkscape:window-maximized="1"
   inkscape:current-layer="Capa_1" />
<g
   id="g8"
   style="fill:#333333">
	<g
   id="g6"
   style="fill:#333333">
		<polygon
   points="25.052,57.523 17.894,64.681 53.683,64.681 46.525,57.523   "
   fill="#91DC5A"
   id="polygon2"
   style="fill:#333333" />
		<path
   d="M0,6.896v46.525h71.577V6.896H0z M33.237,40.863c-3.518-0.512-6.943-1.009-10.382-1.51    c0-2.845,0-5.604,0-8.421c3.471,0,6.9,0,10.382,0C33.237,34.221,33.237,37.503,33.237,40.863z M33.248,29.425    c-3.464,0-6.871,0-10.361,0c0-2.788,0-5.572,0-8.478c3.411-0.494,6.857-0.995,10.361-1.507    C33.248,22.794,33.248,26.058,33.248,29.425z M48.644,43.089c-4.667-0.673-9.273-1.338-13.922-2.011c0-3.389,0-6.735,0-10.139    c4.62,0,9.216,0,13.922,0C48.644,34.976,48.644,38.963,48.644,43.089z M48.719,29.418c-4.724,0-9.319,0-13.979,0    c0-3.382,0-6.746,0-10.185c2.162-0.315,4.316-0.619,6.474-0.945c2.273-0.344,4.545-0.705,6.811-1.056c0.233,0,0.469,0,0.701,0    C48.719,21.273,48.719,25.32,48.719,29.418z"
   fill="#91DC5A"
   id="path4"
   style="fill:#333333" />
	</g>
</g>
<g
   id="g10">
</g>
<g
   id="g12">
</g>
<g
   id="g14">
</g>
<g
   id="g16">
</g>
<g
   id="g18">
</g>
<g
   id="g20">
</g>
<g
   id="g22">
</g>
<g
   id="g24">
</g>
<g
   id="g26">
</g>
<g
   id="g28">
</g>
<g
   id="g30">
</g>
<g
   id="g32">
</g>
<g
   id="g34">
</g>
<g
   id="g36">
</g>
<g
   id="g38">
</g>
</svg>