<?xml version="1.0" encoding="iso-8859-1"?>
<!-- Generator: Adobe Illustrator 18.1.1, SVG Export Plug-In . SVG Version: 6.00 Build 0)  -->
<svg xmlns="http://www.w3.org/2000/svg" xmlns:xlink="http://www.w3.org/1999/xlink" version="1.1" id="Capa_1" x="0px" y="0px" viewBox="0 0 85.348 85.348" style="enable-background:new 0 0 85.348 85.348;" xml:space="preserve" width="512px" height="512px">
<g>
	<g>
		<path d="M77.45,57.691v-3.16V35.563V16.595c0-1.736-1.421-3.16-3.16-3.16H11.066    c-1.739,0-3.167,1.417-3.167,3.16v18.968v18.968v3.16L0,67.175c0,2.613,2.122,4.738,4.738,4.738H80.61    c2.613,0,4.738-2.126,4.738-4.738L77.45,57.691z M49.002,70.339H36.358c-0.437,0-0.791-0.351-0.791-0.791s0.354-0.791,0.791-0.791    h12.644c0.437,0,0.791,0.351,0.791,0.791C49.785,69.988,49.438,70.339,49.002,70.339z M29.644,67.179l2.412-2.895h21.233    l2.416,2.895H29.644z M73.001,52.101c0,1.525-1.242,2.759-2.759,2.759H15.106c-1.514,0-2.756-1.245-2.756-2.759V19.032    c0-1.525,1.242-2.759,2.756-2.759h55.136c1.517,0,2.759,1.242,2.759,2.759C73.001,19.032,73.001,52.101,73.001,52.101z" fill="#91DC5A"/>
		<path d="M20.088,35.327l3.056,2.759c4.982-5.515,12.097-8.675,19.523-8.675    c7.43,0,14.541,3.167,19.53,8.682l3.056-2.763c-5.758-6.378-13.993-10.039-22.586-10.039    C34.089,25.288,25.85,28.946,20.088,35.327z" fill="#91DC5A"/>
		<path d="M25.829,40.513l3.06,2.766c3.514-3.894,8.546-6.123,13.782-6.123s10.264,2.23,13.779,6.123    l3.06-2.759c-4.298-4.76-10.436-7.487-16.842-7.487C36.264,33.033,30.13,35.76,25.829,40.513z" fill="#91DC5A"/>
		<path d="M31.956,46.038l3.06,2.766c3.905-4.327,11.406-4.327,15.307,0l3.056-2.766    c-2.731-3.028-6.635-4.76-10.715-4.76S34.69,43.014,31.956,46.038z" fill="#91DC5A"/>
	</g>
</g>
<g>
</g>
<g>
</g>
<g>
</g>
<g>
</g>
<g>
</g>
<g>
</g>
<g>
</g>
<g>
</g>
<g>
</g>
<g>
</g>
<g>
</g>
<g>
</g>
<g>
</g>
<g>
</g>
<g>
</g>
</svg>
