<?xml version="1.0" encoding="UTF-8" standalone="no"?>
<!-- Generator: Adobe Illustrator 18.1.1, SVG Export Plug-In . SVG Version: 6.00 Build 0)  -->

<svg
   xmlns:dc="http://purl.org/dc/elements/1.1/"
   xmlns:cc="http://creativecommons.org/ns#"
   xmlns:rdf="http://www.w3.org/1999/02/22-rdf-syntax-ns#"
   xmlns:svg="http://www.w3.org/2000/svg"
   xmlns="http://www.w3.org/2000/svg"
   xmlns:sodipodi="http://sodipodi.sourceforge.net/DTD/sodipodi-0.dtd"
   xmlns:inkscape="http://www.inkscape.org/namespaces/inkscape"
   version="1.1"
   id="Capa_1"
   x="0px"
   y="0px"
   viewBox="0 0 80.746 80.746"
   style="enable-background:new 0 0 80.746 80.746;"
   xml:space="preserve"
   width="512px"
   height="512px"
   sodipodi:docname="04printer.svg"
   inkscape:version="0.92.4 (5da689c313, 2019-01-14)"><metadata
   id="metadata47"><rdf:RDF><cc:Work
       rdf:about=""><dc:format>image/svg+xml</dc:format><dc:type
         rdf:resource="http://purl.org/dc/dcmitype/StillImage" /></cc:Work></rdf:RDF></metadata><defs
   id="defs45" /><sodipodi:namedview
   pagecolor="#ffffff"
   bordercolor="#666666"
   borderopacity="1"
   objecttolerance="10"
   gridtolerance="10"
   guidetolerance="10"
   inkscape:pageopacity="0"
   inkscape:pageshadow="2"
   inkscape:window-width="640"
   inkscape:window-height="480"
   id="namedview43"
   showgrid="false"
   inkscape:zoom="0.4609375"
   inkscape:cx="256"
   inkscape:cy="256"
   inkscape:window-x="0"
   inkscape:window-y="0"
   inkscape:window-maximized="0"
   inkscape:current-layer="Capa_1" />
<g
   id="g10"
   style="fill:#ffffff">
	<g
   id="g8"
   style="fill:#ffffff">
		<path
   d="M73.621,38.499H7.125C3.207,38.499,0,41.706,0,45.621v19c0,3.922,3.207,7.129,7.125,7.129h11.953    C19.057,71.611,19,71.493,19,71.353v-9.498c0-1.417,1.156-2.573,2.577-2.573h37.596c1.417,0,2.573,1.16,2.573,2.573v9.498    c0,0.14-0.057,0.258-0.075,0.397h11.953c3.919,0,7.122-3.207,7.122-7.129v-19C80.739,41.706,77.539,38.499,73.621,38.499z     M68.868,53.341c-1.639,0-2.967-1.328-2.967-2.97c0-1.639,1.328-2.967,2.967-2.967c1.643,0,2.97,1.328,2.97,2.967    C71.838,52.013,70.511,53.341,68.868,53.341z"
   fill="#91DC5A"
   id="path2"
   style="fill:#ffffff" />
		<rect
   x="21.369"
   y="61.655"
   width="37.997"
   height="5.046"
   fill="#91DC5A"
   id="rect4"
   style="fill:#ffffff" />
		<path
   d="M61.746,23.311L47.431,8.995H19.004v27.196h42.742V23.311z M48.325,22.416V11.157l11.259,11.259    H48.325z"
   fill="#91DC5A"
   id="path6"
   style="fill:#ffffff" />
	</g>
</g>
<g
   id="g12">
</g>
<g
   id="g14">
</g>
<g
   id="g16">
</g>
<g
   id="g18">
</g>
<g
   id="g20">
</g>
<g
   id="g22">
</g>
<g
   id="g24">
</g>
<g
   id="g26">
</g>
<g
   id="g28">
</g>
<g
   id="g30">
</g>
<g
   id="g32">
</g>
<g
   id="g34">
</g>
<g
   id="g36">
</g>
<g
   id="g38">
</g>
<g
   id="g40">
</g>
</svg>